<svg width="200" height="133" viewBox="0 0 200 133" fill="none" xmlns="http://www.w3.org/2000/svg">
<path d="M0 0H186C193.732 0 200 6.26801 200 14V119C200 126.732 193.732 133 186 133H0V0Z" fill="#D9D9D9"/>
<path d="M44 81C44 77.6863 46.6863 75 50 75H140C143.314 75 146 77.6863 146 81V91C146 94.3137 143.314 97 140 97H50C46.6863 97 44 94.3137 44 91V81Z" fill="#CA2136"/>
<path d="M67.3 87.95C67.3 88.24 67.195 88.49 66.985 88.7C66.785 88.9 66.54 89 66.25 89H62.05V87.95H66.1V85.85H63.1C62.81 85.85 62.56 85.75 62.35 85.55C62.15 85.34 62.05 85.09 62.05 84.8V82.7C62.05 82.41 62.15 82.165 62.35 81.965C62.56 81.755 62.81 81.65 63.1 81.65H67.3V82.7H63.25V84.8H66.25C66.54 84.8 66.785 84.905 66.985 85.115C67.195 85.315 67.3 85.56 67.3 85.85V87.95ZM76.3035 89H75.1035V85.85H71.2035V89H70.0035V81.65H71.2035V85.7L72.1035 84.8H75.1035V81.65H76.3035V89ZM85.5227 87.95C85.5227 88.24 85.4177 88.49 85.2077 88.7C85.0077 88.9 84.7627 89 84.4727 89H80.2727C79.9827 89 79.7327 88.9 79.5227 88.7C79.3227 88.49 79.2227 88.24 79.2227 87.95V82.7C79.2227 82.41 79.3227 82.165 79.5227 81.965C79.7327 81.755 79.9827 81.65 80.2727 81.65H84.4727C84.7627 81.65 85.0077 81.755 85.2077 81.965C85.4177 82.165 85.5227 82.41 85.5227 82.7V87.95ZM84.3227 87.95V82.7H80.4227V87.95H84.3227ZM94.7453 85.85C94.7453 86.13 94.6403 86.375 94.4303 86.585C94.2203 86.795 93.9753 86.9 93.6953 86.9H89.6453V89H88.4453V83.75L89.4953 82.7H88.4453V81.65H93.6953C93.9753 81.65 94.2203 81.755 94.4303 81.965C94.6403 82.175 94.7453 82.42 94.7453 82.7V85.85ZM93.5453 85.85V82.7H89.6453V86.75L90.5453 85.85H93.5453ZM107.123 88.985H105.023L102.173 82.76H101.573L102.023 83.51V88.985H100.823V81.635H102.938L105.773 87.86H106.373L105.923 87.11V81.635H107.123V88.985ZM116.342 87.95C116.342 88.24 116.237 88.49 116.027 88.7C115.827 88.9 115.582 89 115.292 89H111.092C110.802 89 110.552 88.9 110.342 88.7C110.142 88.49 110.042 88.24 110.042 87.95V82.7C110.042 82.41 110.142 82.165 110.342 81.965C110.552 81.755 110.802 81.65 111.092 81.65H115.292C115.582 81.65 115.827 81.755 116.027 81.965C116.237 82.165 116.342 82.41 116.342 82.7V87.95ZM115.142 87.95V82.7H111.242V87.95H115.142ZM128.789 81.65L127.139 89H125.114L123.689 83.615H123.539L122.114 89H120.089L118.439 81.65H119.789L120.989 87.98H121.289L123.014 81.65H124.214L125.939 87.98H126.239L127.439 81.65H128.789Z" fill="white"/>
<path d="M77.24 51.32L67.96 60.472V62.52H74.36V57.08L76.92 54.52V67H74.36V64.76H65.72V60.408C65.72 60.152 65.72 59.9493 65.72 59.8C65.7413 59.6507 65.7733 59.5227 65.816 59.416C65.8587 59.288 65.9227 59.1813 66.008 59.096C66.0933 58.9893 66.2 58.8613 66.328 58.712L73.656 51.32H77.24ZM82.185 53.56C82.185 52.9413 82.3983 52.4187 82.825 51.992C83.273 51.544 83.8063 51.32 84.425 51.32H91.465C92.0837 51.32 92.6063 51.544 93.033 51.992C93.481 52.4187 93.705 52.9413 93.705 53.56V64.76C93.705 65.3787 93.481 65.912 93.033 66.36C92.6063 66.7867 92.0837 67 91.465 67H82.505V64.76H91.145V60.6H84.425C83.8063 60.6 83.273 60.3867 82.825 59.96C82.3983 59.512 82.185 58.9787 82.185 58.36V53.56ZM84.745 53.56V58.36H91.145V53.56H84.745ZM99.45 53.56C99.45 52.9413 99.6633 52.4187 100.09 51.992C100.538 51.544 101.071 51.32 101.69 51.32H108.73C109.349 51.32 109.871 51.544 110.298 51.992C110.746 52.4187 110.97 52.9413 110.97 53.56V64.76C110.97 65.3787 110.746 65.912 110.298 66.36C109.871 66.7867 109.349 67 108.73 67H99.77V64.76H108.41V60.6H101.69C101.071 60.6 100.538 60.3867 100.09 59.96C99.6633 59.512 99.45 58.9787 99.45 58.36V53.56ZM102.01 53.56V58.36H108.41V53.56H102.01ZM125.355 49.08L116.523 69.24H114.155L123.083 49.08H125.355ZM133.661 60.28L131.421 62.52H125.981L128.221 60.28H133.661Z" fill="black"/>
<path d="M62.0775 51.8311H60.0387C59.861 51.1336 59.547 50.4816 59.1162 49.9155H62.0775C62.3221 49.9155 62.5568 49.8146 62.7298 49.635C62.9028 49.4554 63 49.2118 63 48.9578C63 48.7038 62.9028 48.4601 62.7298 48.2805C62.5568 48.1009 62.3221 48 62.0775 48H51.9297C51.685 48 51.4503 48.1009 51.2773 48.2805C51.1043 48.4601 51.0071 48.7038 51.0071 48.9578C51.0071 49.2118 51.1043 49.4554 51.2773 49.635C51.4503 49.8146 51.685 49.9155 51.9297 49.9155H55.1585C55.7676 49.9178 56.3637 50.0988 56.8779 50.4378C57.3921 50.7767 57.8034 51.2598 58.0645 51.8311H51.9297C51.685 51.8311 51.4503 51.932 51.2773 52.1116C51.1043 52.2912 51.0071 52.5349 51.0071 52.7889C51.0071 53.0429 51.1043 53.2865 51.2773 53.4661C51.4503 53.6457 51.685 53.7466 51.9297 53.7466H58.3874C58.2768 54.5422 57.8945 55.27 57.3103 55.7974C56.7261 56.3248 55.9788 56.6167 55.2046 56.62H51.9297C51.8867 56.6155 51.8435 56.6155 51.8005 56.62C51.7394 56.6101 51.6771 56.6101 51.616 56.62C51.5531 56.6422 51.494 56.6745 51.4407 56.7158L51.33 56.7828C51.2795 56.8302 51.236 56.885 51.2009 56.9456C51.17 56.9881 51.1422 57.0329 51.1178 57.0797C51.1096 57.1369 51.1096 57.195 51.1178 57.2521C51.0521 57.3476 51.0137 57.4605 51.0071 57.5777C51.0028 57.6223 51.0028 57.6673 51.0071 57.7118C50.9976 57.7753 50.9976 57.8399 51.0071 57.9034C51.0286 57.9687 51.0597 58.0301 51.0994 58.0854C51.0994 58.0854 51.0994 58.162 51.164 58.2003L56.6991 64.9047C56.8582 65.0978 57.0846 65.2173 57.3285 65.2371C57.5724 65.2569 57.814 65.1752 57.9999 65.0101C58.1858 64.845 58.301 64.6099 58.32 64.3567C58.3391 64.1034 58.2604 63.8527 58.1014 63.6596L53.9408 58.5355H55.1585C56.428 58.541 57.6533 58.0522 58.5926 57.1656C59.5319 56.2791 60.117 55.0592 60.2324 53.7466H62.0775C62.3221 53.7466 62.5568 53.6457 62.7298 53.4661C62.9028 53.2865 63 53.0429 63 52.7889C63 52.5349 62.9028 52.2912 62.7298 52.1116C62.5568 51.932 62.3221 51.8311 62.0775 51.8311Z" fill="#CA2136"/>
<path d="M59.4 43H58V42L57 43H53.8C53.4133 43 53.08 42.8667 52.8 42.6C52.5333 42.32 52.4 41.9867 52.4 41.6V36H53.8V41.8H58V36H59.4V43ZM69.6047 43H68.2047V37.2H64.0047V43H62.6047V36H64.0047V37L65.0047 36H68.2047C68.5914 36 68.918 36.14 69.1847 36.42C69.4647 36.6867 69.6047 37.0133 69.6047 37.4V43ZM79.8094 43H78.4094V42L77.4094 43H74.2094C73.8227 43 73.4894 42.8667 73.2094 42.6C72.9427 42.32 72.8094 41.9867 72.8094 41.6V37.4C72.8094 37.0133 72.9427 36.6867 73.2094 36.42C73.4894 36.14 73.8227 36 74.2094 36H78.4094V32.8L79.8094 31.4V43ZM78.4094 41.8V36.2L77.4094 37.2H74.2094V41.8H78.4094ZM90.2094 43H84.6094C84.2227 43 83.8894 42.8667 83.6094 42.6C83.3427 42.32 83.2094 41.9867 83.2094 41.6V37.4C83.2094 37.0133 83.3427 36.6867 83.6094 36.42C83.8894 36.14 84.2227 36 84.6094 36H88.8094C89.196 36 89.5227 36.14 89.7894 36.42C90.0694 36.6867 90.2094 37.0133 90.2094 37.4V38.8L88.8094 40.2H84.8094L86.0094 39H88.8094V37.2H84.6094V41.8H90.2094V43ZM98.4086 38.8H97.0086V37.2H94.2086V43H92.8086V36H94.2086V37L95.2086 36H97.0086C97.3953 36 97.7219 36.14 97.9886 36.42C98.2686 36.6867 98.4086 37.0133 98.4086 37.4V38.8Z" fill="#1E1E1E" fill-opacity="0.56"/>
</svg>
